# xmcd
#
# Track frame offsets:
#       150
#       13117
#       24847
#       39715
#       54512
#       66180
#       82980
#       101167
#       112960
#       127657
#       142550
#       157345
#       173422
#       186570
#
# Disc length: 2795 seconds
#
# Revision: 1
# Processed by: cddbd v1.4PL0 Copyright (c) Steve Scherf et al.
# Submitted via: WhereIsIt 3.53
#
DISCID=ad0ae90e
DTITLE=Mr Music - Country No. 5-02
DYEAR=1900
DGENRE=Country
TTITLE0=Dwight Yoakam - The Heartaches Are Free
TTITLE1=Myra Pearce - Somebody Else Look
TTITLE2=Billy Ray Cyrus - Missing You
TTITLE3=Tommy Allen - When They Close The Last HonkyTonk In Texas
TTITLE4=Ann Tayler - That's What I Like About You
TTITLE5=Mark Wills - The Balloon Song
TTITLE6=Jamie O'Neal - Shiver
TTITLE7=Willie Nelson - Ol' Blue
TTITLE8=Joe Paul Nichols - The Way It Was
TTITLE9=Kenny Ward - U. F. O.
TTITLE10=Faye Pierce - Angels' Choir
TTITLE11=Davin James - Making My Mark
TTITLE12=Bunnie Mills - Country Music Harmony/You Are My Sunshine
TTITLE13=Billy Bob Thornton - Lost Highway
EXTD=
EXTT0=
EXTT1=
EXTT2=
EXTT3=
EXTT4=
EXTT5=
EXTT6=
EXTT7=
EXTT8=
EXTT9=
EXTT10=
EXTT11=
EXTT12=
EXTT13=
PLAYORDER=
